<svg id="Layer_1" data-name="Layer 1" xmlns="http://www.w3.org/2000/svg" viewBox="0 0 317.9 55.87"><defs><style>.cls-1{fill:#fff;}.cls-2{fill:none;stroke:#fff;stroke-width:5px;}</style></defs><path class="cls-1" d="M99.26,55.76a.69.69,0,0,1-.22,0,3,3,0,0,1-.57.07h-.39a4.56,4.56,0,0,1-2.82-1,2.74,2.74,0,0,1-1.05-2.51c.2-2.26.36-4.51.46-6.75s.14-4.8.12-7.69,0-5-.06-6.38-.08-3.91-.2-7.67-.2-6-.21-6.73a4.06,4.06,0,0,1-1.95-.09,4.37,4.37,0,0,1-1.71-.9,4.43,4.43,0,0,1-1.09-1.38,2.11,2.11,0,0,1-.1-1.64,3.2,3.2,0,0,1,1.26-1.58,20.69,20.69,0,0,1,4.56-2.42,22.93,22.93,0,0,1,10.12-1.49,22.71,22.71,0,0,1,4.94.91,17.67,17.67,0,0,1,4.43,2.06,17.16,17.16,0,0,1,3.65,3.1A14.29,14.29,0,0,1,121,17.93a16.78,16.78,0,0,1,1.12,5.28,28.85,28.85,0,0,1-.76,8.18,32.23,32.23,0,0,1-3,7.8,38.7,38.7,0,0,1-4.75,6.86,34.07,34.07,0,0,1-6.25,5.61A33.29,33.29,0,0,1,100,55.5a6.81,6.81,0,0,1-.68.23A.15.15,0,0,1,99.26,55.76Zm10.41-40.71a13.53,13.53,0,0,0-7.85-1q.08,3,.22,8t.25,8.44c.06,2.25.1,4.88.1,7.88s-.06,5.77-.18,8.31a29.72,29.72,0,0,0,8-8.16,25.78,25.78,0,0,0,4.1-10.22Q115.94,17.89,109.67,15.05Z" transform="translate(-41.78 0)"/><path class="cls-1" d="M150.51,39.19c1,1.06,1.26,2.11.65,3.17a3.76,3.76,0,0,1-2.41,1.7,4,4,0,0,1-3.57-.5,4.91,4.91,0,0,1-.48-.41,10.89,10.89,0,0,1-2.61-4.57q-5,6.33-12.09,4.7a8.68,8.68,0,0,1-3.12-1.36,7.38,7.38,0,0,1-2.06-2.2,9.53,9.53,0,0,1-1.12-2.9,17,17,0,0,1-.41-3.33,24.6,24.6,0,0,1,.22-3.62c.17-1.3.37-2.51.62-3.64s.55-2.31.91-3.55.7-2.28,1-3.15.64-1.75,1-2.65a3,3,0,0,1,2.79-2A4.56,4.56,0,0,1,133.39,16a2.69,2.69,0,0,1,.76,3.25,46.83,46.83,0,0,0-2.93,11.16,18.44,18.44,0,0,0-.15,5.19,1.92,1.92,0,0,0,1,1.53,2.51,2.51,0,0,0,1.32.12,2.89,2.89,0,0,0,1.28-.65,7.68,7.68,0,0,0,1.23-1.25,12.55,12.55,0,0,0,1.15-1.7c.38-.66.74-1.33,1.09-2s.68-1.44,1-2.21.6-1.53.87-2.25.52-1.44.76-2.15.45-1.33.63-1.9.34-1.07.47-1.52l.15-.5a2.53,2.53,0,0,1,.57-1.28,2.92,2.92,0,0,1,2.08-1.21,4.29,4.29,0,0,1,2.57.36,3.1,3.1,0,0,1,1.71,1.19,3.16,3.16,0,0,1,.59,2c0,.54-.07,1.33-.14,2.39s-.11,1.89-.15,2.54-.07,1.42-.1,2.33,0,1.73,0,2.49v1.82c0,.18,0,.5,0,1a9.85,9.85,0,0,0,.08,1c0,.24.09.56.16,1a5,5,0,0,0,.26,1,7.15,7.15,0,0,0,.39.79A3.18,3.18,0,0,0,150.51,39.19Z" transform="translate(-41.78 0)"/><path class="cls-1" d="M160.42,40.6a2.28,2.28,0,0,1-1,2.89,4.58,4.58,0,0,1-3.3.55,3.91,3.91,0,0,1-2.94-1.92,2.56,2.56,0,0,1-.24-.56,7.67,7.67,0,0,1-.29-2c0-.76,0-1.64,0-2.64s.09-1.68.09-2V22.14q0-12.87.09-19.31a2.51,2.51,0,0,1,1.9-2.58,4.65,4.65,0,0,1,3.79.35,3.18,3.18,0,0,1,1.89,3q0,6.14-.08,18.48,0,6.48,0,12.94c0,2,0,3.55,0,4.57a8.52,8.52,0,0,0,.09,1v.24A1.8,1.8,0,0,0,160.42,40.6Z" transform="translate(-41.78 0)"/><path class="cls-1" d="M175.14,15.31a12.82,12.82,0,0,1,4.52.94,10.14,10.14,0,0,1,3.42,2.23,12.53,12.53,0,0,1,2.29,3.19,12.93,12.93,0,0,1,1.26,3.84,18,18,0,0,1,.21,4.16,19,19,0,0,1-.73,4.18,16.58,16.58,0,0,1-1.69,3.86,15.75,15.75,0,0,1-2.57,3.23,12.18,12.18,0,0,1-3.45,2.28,11.82,11.82,0,0,1-4.24,1A10.52,10.52,0,0,1,165,40.58a14.2,14.2,0,0,1-3.24-8.42,18,18,0,0,1,1.72-9.41,12.66,12.66,0,0,1,6.13-6.35,12.14,12.14,0,0,1,4.52-1.07l.18,0h.19C174.78,15.33,175,15.31,175.14,15.31Zm-1.72,22.6a4.59,4.59,0,0,0,2.86-1.23,8.3,8.3,0,0,0,2.09-2.89,12.81,12.81,0,0,0,1-3.75,12,12,0,0,0-.06-3.8,6.32,6.32,0,0,0-1.45-3.06,4.44,4.44,0,0,0-2.9-1.5q-2.66.43-4.35,3.57a13,13,0,0,0-1.56,6.44q0,3.54,1.67,5.19A3.42,3.42,0,0,0,173.42,37.91Z" transform="translate(-41.78 0)"/><path class="cls-1" d="M205.89,17.29a2.75,2.75,0,0,1,2.56-2,4.51,4.51,0,0,1,3.6,1.12,3,3,0,0,1,1,3.32,111,111,0,0,1-4.67,13.09,48,48,0,0,1-2.9,6q-3.1,5-7.06,5.07a5.86,5.86,0,0,1-1.74-.26,6.77,6.77,0,0,1-1.46-.65A5,5,0,0,1,194,41.82c-.39-.47-.72-.89-1-1.28a9.77,9.77,0,0,1-.81-1.57c-.28-.65-.49-1.18-.65-1.6a17.53,17.53,0,0,1-.54-1.72c-.19-.73-.33-1.26-.41-1.61l-.36-1.53A109.61,109.61,0,0,1,188.06,19a3.09,3.09,0,0,1,.25-1.64,2.74,2.74,0,0,1,1-1.16,6,6,0,0,1,1.42-.67,3.93,3.93,0,0,1,1.6-.18,5.73,5.73,0,0,1,1.52.36,2.87,2.87,0,0,1,1.18.89,2.78,2.78,0,0,1,.57,1.44q.49,4.84,1.33,9.41a66,66,0,0,0,1.63,7.25,2,2,0,0,0,.15.39,17.83,17.83,0,0,0,1.3-2q1.64-3.37,3-7.15C204,23.22,205,20.34,205.89,17.29Z" transform="translate(-41.78 0)"/><path class="cls-1" d="M230,34.8a3.41,3.41,0,0,1,3.28-1.22A4.39,4.39,0,0,1,236.15,35a2.46,2.46,0,0,1,.42,3.07,3.87,3.87,0,0,1-.37.56,13.26,13.26,0,0,1-3.76,3.28,12.24,12.24,0,0,1-4.32,1.55,12,12,0,0,1-4.39-.15,11.75,11.75,0,0,1-4-1.68,11.35,11.35,0,0,1-3.18-3.22,12.77,12.77,0,0,1-1.88-4.63,24.81,24.81,0,0,1-.34-3.56,14.58,14.58,0,0,1,.39-3.59,23.57,23.57,0,0,1,1.09-3.39,13,13,0,0,1,1.76-3A14.87,14.87,0,0,1,220,17.76a11.08,11.08,0,0,1,3-1.71,12.1,12.1,0,0,1,3.63-.76l.43,0a5.52,5.52,0,0,1,.59,0,10.22,10.22,0,0,1,3.49.63A8.38,8.38,0,0,1,234,17.63a5.75,5.75,0,0,1,1.66,2.71,6.39,6.39,0,0,1-.1,3.56q-2,6.63-12.7,10.94a5,5,0,0,0,1.27,1.66,3.18,3.18,0,0,0,1.66.75,3.08,3.08,0,0,0,2-.49A8,8,0,0,0,230,34.8Zm-7.79-7a12.78,12.78,0,0,0,5.57-4.68,6.32,6.32,0,0,0,.57-1.46l-.3,0h-.31a5.22,5.22,0,0,0-3.63,2A9.55,9.55,0,0,0,222.17,27.82Zm6.18-6.14c0,.11.11.12.24.05s0,0,0,0,0,0-.1,0Z" transform="translate(-41.78 0)"/><path class="cls-1" d="M256.22,35.17a3.91,3.91,0,0,1,3.57-1,4.56,4.56,0,0,1,2.91,1.5,2.11,2.11,0,0,1,.16,2.89,5.23,5.23,0,0,1-.4.43,15,15,0,0,1-4.17,3,17.06,17.06,0,0,1-4.81,1.54,15.15,15.15,0,0,1-4.89-.05,13.91,13.91,0,0,1-4.49-1.56,11.23,11.23,0,0,1-3.56-3.24,12.43,12.43,0,0,1-2.12-4.89,14.83,14.83,0,0,1,.07-6.66,15.71,15.71,0,0,1,2.72-5.86,14.81,14.81,0,0,1,4.91-4.14,14.08,14.08,0,0,1,6.43-1.67,6.22,6.22,0,0,1,2.86.61A2.85,2.85,0,0,1,257,18.12a3,3,0,0,1-.71,2.48A3.09,3.09,0,0,1,254,21.75a7.75,7.75,0,0,0-6,2.7,9.35,9.35,0,0,0-2.24,6.47,7.91,7.91,0,0,0,.67,3.22,5.51,5.51,0,0,0,1.75,2.23,5.8,5.8,0,0,0,2.44,1,5.29,5.29,0,0,0,2.84-.33A8.22,8.22,0,0,0,256.22,35.17Z" transform="translate(-41.78 0)"/><path class="cls-1" d="M289.3,39a2.86,2.86,0,0,1-.55,2.17A3.43,3.43,0,0,1,287,42.45a5.36,5.36,0,0,1-2.27.17,3.61,3.61,0,0,1-2-.84,31.85,31.85,0,0,1-6.91,1.69l-1.49.21c-.43,0-1,.1-1.68.14a16.12,16.12,0,0,1-1.82,0,15.16,15.16,0,0,1-1.74-.21,6.17,6.17,0,0,1-1.63-.47,4.93,4.93,0,0,1-1.29-.88,3.64,3.64,0,0,1-.9-1.35,6,6,0,0,1-.42-2.31,9.94,9.94,0,0,1,.28-2.5,18.77,18.77,0,0,1,.81-2.52A22.63,22.63,0,0,1,267,31.25q.57-1,1.2-2a21.38,21.38,0,0,1,9-7.54q-2.51-.66-6.4,2a3.77,3.77,0,0,1-3.63.37,4.11,4.11,0,0,1-2.32-1.89,2.28,2.28,0,0,1,.43-3,3.48,3.48,0,0,1,.61-.52,19.18,19.18,0,0,1,4.34-2.26,21.17,21.17,0,0,1,4.89-1.19,12.5,12.5,0,0,1,5,.43,9.7,9.7,0,0,1,4.22,2.48,10,10,0,0,1,2.34,3.8,3,3,0,0,1,.16.5,21.71,21.71,0,0,1,.82,3.57c.21,1.27.4,2.61.58,4s.38,3,.61,4.91S289.2,38.24,289.3,39Zm-14.22-2c.74-.13,1.29-.23,1.66-.31s.89-.2,1.57-.4a6.54,6.54,0,0,0,1.7-.74,4.08,4.08,0,0,0,1.13-1q-.45-4-.89-6.79a14.66,14.66,0,0,0-4.91,4.13q-.29.38-.51.72a5.08,5.08,0,0,0-.44.81l-.31.68a5.88,5.88,0,0,0-.31.82c-.13.39-.2.62-.23.69l-.24.83c-.13.48-.2.72-.2.74A16.46,16.46,0,0,0,275.08,37.06Z" transform="translate(-41.78 0)"/><path class="cls-1" d="M313.52,33.56c1.32.69,1.88,1.58,1.67,2.67a3.21,3.21,0,0,1-1.67,2.18,4.32,4.32,0,0,1-3.63.52,4.51,4.51,0,0,1-.72-.29l-11-5.74V35c0,2,0,3.55,0,4.57a8.52,8.52,0,0,0,.09,1v.24a1.8,1.8,0,0,0-.07-.24,2.28,2.28,0,0,1-1,2.89,4.58,4.58,0,0,1-3.3.55A3.91,3.91,0,0,1,291,42.12a2.56,2.56,0,0,1-.24-.56,7.67,7.67,0,0,1-.29-2c0-.76,0-1.64.05-2.64s.09-1.68.09-2q0-6.39,0-12.76,0-12.87.09-19.31a2.51,2.51,0,0,1,1.9-2.58,4.65,4.65,0,0,1,3.79.35,3.18,3.18,0,0,1,1.89,3l-.06,18.07a26,26,0,0,0,3.72-3.52,28.79,28.79,0,0,0,2.95-3.85,5.44,5.44,0,0,0,.35-.76,2.36,2.36,0,0,1,.33-.65s.06.08,0,.28l.11.22a3.58,3.58,0,0,1,.69-1.78,3.35,3.35,0,0,1,1.49-1.16,3.63,3.63,0,0,1,3.63.5q2.69,2.12.56,5.83a32.41,32.41,0,0,1-2.39,3.37A32.44,32.44,0,0,1,302,27.51Z" transform="translate(-41.78 0)"/><path class="cls-1" d="M332.07,34.8a3.41,3.41,0,0,1,3.28-1.22A4.41,4.41,0,0,1,338.26,35a2.46,2.46,0,0,1,.42,3.07,4.92,4.92,0,0,1-.37.56,13.26,13.26,0,0,1-3.76,3.28,12.31,12.31,0,0,1-4.32,1.55,12,12,0,0,1-4.39-.15,11.8,11.8,0,0,1-4-1.68,11.32,11.32,0,0,1-3.17-3.22,12.77,12.77,0,0,1-1.88-4.63,23.45,23.45,0,0,1-.34-3.56,14.58,14.58,0,0,1,.39-3.59,23.57,23.57,0,0,1,1.09-3.39,13,13,0,0,1,1.76-3,14.82,14.82,0,0,1,2.4-2.47,11.15,11.15,0,0,1,3-1.71,12.1,12.1,0,0,1,3.63-.76l.43,0a5.36,5.36,0,0,1,.59,0,10.22,10.22,0,0,1,3.49.63,8.38,8.38,0,0,1,2.87,1.73,5.83,5.83,0,0,1,1.66,2.71,6.31,6.31,0,0,1-.11,3.56q-2,6.63-12.69,10.94a4.85,4.85,0,0,0,1.27,1.66,3.18,3.18,0,0,0,1.66.75,3.08,3.08,0,0,0,2-.49A8,8,0,0,0,332.07,34.8Zm-7.79-7a12.78,12.78,0,0,0,5.57-4.68,6.3,6.3,0,0,0,.56-1.46l-.29,0h-.31a5.26,5.26,0,0,0-3.64,2A9.65,9.65,0,0,0,324.28,27.82Zm6.18-6.14c0,.11.11.12.24.05a0,0,0,0,0,0,0s0,0-.1,0Z" transform="translate(-41.78 0)"/><path class="cls-1" d="M354.46,28.69c.76.68,1.38,1.27,1.87,1.77a23.26,23.26,0,0,1,1.59,1.83,8.6,8.6,0,0,1,1.28,2.27,7.72,7.72,0,0,1,.48,2.43,7.54,7.54,0,0,1-1.61,4.88,10.41,10.41,0,0,1-4.22,3.38,9.84,9.84,0,0,1-4.66.88,10.69,10.69,0,0,1-4.36-1.21,13.41,13.41,0,0,1-3.72-3,2.61,2.61,0,0,1-.54-3.3A3.82,3.82,0,0,1,343,37a3.74,3.74,0,0,1,3.46.63,4.35,4.35,0,0,1,.44.41,4.71,4.71,0,0,0,1.32,1.07,4.14,4.14,0,0,0,1.53.49,1.86,1.86,0,0,0,1.39-.44,2.73,2.73,0,0,0,.87-1.59,3.34,3.34,0,0,0,.05-.43,1.43,1.43,0,0,0,0-.41l-.1-.37a1.67,1.67,0,0,0-.17-.37l-.21-.34a4.26,4.26,0,0,0-.26-.35L351,35l-.3-.32-.27-.3c-.49-.54-1.13-1.16-1.9-1.86s-1.45-1.31-2-1.82a15.67,15.67,0,0,1-1.81-1.88,12.21,12.21,0,0,1-1.52-2.25,9.7,9.7,0,0,1-1-3.27A6.64,6.64,0,0,1,343.57,18a7.48,7.48,0,0,1,2-1.79,9.54,9.54,0,0,1,2.59-1.1,10.85,10.85,0,0,1,2.89-.36,10.71,10.71,0,0,1,3,.5,10.19,10.19,0,0,1,2.86,1.42,2.85,2.85,0,0,1,1.46,3.08A3.39,3.39,0,0,1,356.64,22a3.6,3.6,0,0,1-3.44.19,4.3,4.3,0,0,1-.65-.37c-.94-.62-1.63-.82-2.06-.61a1.41,1.41,0,0,0-.64,1.37,4.22,4.22,0,0,0,.59,2.09,5.53,5.53,0,0,0,.84,1.16,10.23,10.23,0,0,0,1,1c.29.26.68.6,1.17,1S354.26,28.5,354.46,28.69Z" transform="translate(-41.78 0)"/><path class="cls-2" d="M72.84,50.08" transform="translate(-41.78 0)"/><path class="cls-2" d="M72.45,38" transform="translate(-41.78 0)"/><path class="cls-2" d="M76.6,38.48" transform="translate(-41.78 0)"/><path class="cls-2" d="M78.36,21.83" transform="translate(-41.78 0)"/><path class="cls-1" d="M48.85,51.69a2.63,2.63,0,0,1-.67-.09c-1.82-.46-2.56-2.64-2.7-3.58l0-.17a11,11,0,0,0-1.11,2.09l-2.54-1c.64-1.61,2-4.3,3.92-4.21,1.13.06,1.95,1,2.44,2.65l0,.18v.15A2.52,2.52,0,0,0,48.84,49c.13,0,.78-.35,1.86-2.26a4.29,4.29,0,0,1,2.83-2.61c.89-.18,2.53-.06,3.82,2.58a2.35,2.35,0,0,0,3-.87c.35-.72,1.5-2.71,3.28-2.71h0c.76,0,1.83.38,2.64,2.14.54,1.16,1.2,1.17,1.41,1.17a2.55,2.55,0,0,0,1.77-.86V43.65l2.72-.22a7.32,7.32,0,0,0,.59,1.94l0,0c.85-.73,2-2.19,1.79-2.92-.09-.33-.67-.79-2-1.1-.41,0-1.63.18-2.91.34-3.57.44-9.54,1.18-15.33,1.66-3.63.3-9.78.38-10.31-2.46-.4-2.18,2.56-3.34,5.2-4.11l.1,0A153,153,0,0,1,69.81,34a15.85,15.85,0,0,0,2.55-.44,16.41,16.41,0,0,0-1.62-.71,76.87,76.87,0,0,0-15.8.81c-.53.08-5.47.79-8.25.1h0c-.87-.24-3.75-1.17-3.86-3.28a2.7,2.7,0,0,1,1.08-2.2l-.14,0s.38-1.7.8-3.37a15.61,15.61,0,0,1,1.17-3.65c1.92-6.9,12.9-6.7,20.21-6.56l2.55,0h.1A11.12,11.12,0,0,1,77.91,21a17.29,17.29,0,0,1,1.8,5.64l.21,1.88-1.85-.4c-.22,0-2-.27-15.78-.23h-.37c-7.8.18-12.1.53-13.91,1.15a7.58,7.58,0,0,0-2.36,1.24,5.7,5.7,0,0,0,1.71.77c1.92.47,5.84.05,7.19-.16,7.42-1,14.15-1.16,16.72-.78l.15,0,.13.05c2.35.88,4.48,1.94,4.23,3.74-.21,1.52-2.15,2.44-5.76,2.74A150.63,150.63,0,0,0,50,39.38a14.12,14.12,0,0,0-2.58,1,22.25,22.25,0,0,0,6.75.24c5.74-.48,11.68-1.21,15.22-1.65,2.31-.28,3-.37,3.36-.37h.14l.14,0c2.45.51,3.9,1.56,4.3,3.13.68,2.61-2.1,5.19-2.61,5.64a2.5,2.5,0,0,1-2.59.81,2.4,2.4,0,0,1-.86-.5,5.07,5.07,0,0,1-3.52,1.43,4.21,4.21,0,0,1-3.85-2.75,2.32,2.32,0,0,0-.25-.45A4.67,4.67,0,0,0,62.81,47l-.06.11a5.15,5.15,0,0,1-7.1,1.72l-.41-.23-.18-.43c-.56-1.31-1-1.46-1-1.46-.17,0-.57.42-.74.72v.11l-.17.31C52.61,48.87,51.05,51.69,48.85,51.69Zm-.66-4v0Zm-3-.43Zm18.3-1.54ZM47.82,23.2c-.23.73-.56,2-.89,3.36l.12,0h0c2.15-.74,6.43-1.12,14.79-1.31h.4c8.41,0,12.43,0,14.39.13-.68-2.63-2.7-7.5-8.25-7.94l-2.55,0c-6.54-.12-16.43-.31-17.58,4.78L48,23.2Z" transform="translate(-41.78 0)"/><path class="cls-1" d="M58.5,14.06h-.41L58,14c-.09-.06-2.22-1.5-2-3.76S58.59,5.88,63.17,4l.22-.21.71.28v.78l-.2.08c-.4.84-1.4,3.83-1.2,4.4l0,.12v.12C62.57,12.54,61.15,14.06,58.5,14.06Zm0-1.14c2.55,0,3-1.66,3.13-3.34a9.93,9.93,0,0,1,.83-4c-4.17,1.93-5.23,3.63-5.34,4.75A3.25,3.25,0,0,0,58.46,12.92Z" transform="translate(-41.78 0)"/></svg>