<?xml version="1.0" encoding="utf-8"?>
<svg xmlns="http://www.w3.org/2000/svg" xmlns:xlink="http://www.w3.org/1999/xlink" version= "1.1" width="1080px" height="2134px" viewBox="0 0 1080 2134">
<g id="layer1">
<g style="fill:rgb(0,0,0); fill-opacity:1.0; stroke-linejoin: miter">
<path d="M404.05093,1106.5328L404.05093,1106.5328L466.9087,966.9198C469.16895,961.8996,473.368,958.0102,478.5464,956.1405C483.72476,954.2708,489.43994,954.5805,494.38596,956.99884L494.38596,956.99884L616.0523,1016.4871C620.91534,1018.86487,624.62976,1023.0834,626.3729,1028.2083C628.1161,1033.3331,627.74414,1038.9415,625.3395,1043.7914L625.3395,1043.7914L557.95056,1179.7026C554.7405,1186.1769,548.33594,1190.4613,541.12665,1190.9575C533.91736,1191.4537,526.9862,1188.087,522.91943,1182.1136L522.91943,1182.1136L480.73178,1120.1476L500.2165,1128.8629C489.42746,1130.2938,478.13257,1131.795,465.0768,1132.8715L465.0768,1132.8715C452.12225,1133.9396,437.55173,1134.5792,423.49106,1135.1992C416.437,1135.5103,409.72644,1132.1403,405.76343,1126.2964C401.8004,1120.4525,401.15216,1112.9713,404.05093,1106.5328L404.05093,1106.5328 M441.1393,1123.2311L421.6992,1094.5647C435.96207,1093.9358,449.70233,1093.3269,461.7346,1092.3348L461.7346,1092.3348C473.6578,1091.3518,484.01553,1089.9813,494.8687,1088.5419C502.48877,1087.5312,510.02756,1090.9032,514.35345,1097.2572L514.35345,1097.2572L556.54114,1159.2233L521.51,1161.6343L588.8989,1025.723L598.1861,1053.0272L476.5198,993.539L503.99707,983.61804L441.1393,1123.2311 Z"/>
</g>
<g style="fill:rgb(0,0,0); fill-opacity:1.0; stroke-linejoin: miter">
<path d="M718.98157,1185.0833L718.98157,1185.0833L651.1961,1042.4229C648.83325,1037.4501,648.5876,1031.7317,650.51514,1026.5746C652.4427,1021.4174,656.37885,1017.2622,661.4241,1015.0583L661.4241,1015.0583L789.44934,959.1334C794.4099,956.9665,800.0297,956.86664,805.06415,958.856C810.0986,960.8454,814.1322,964.75977,816.2716,969.7323L816.2716,969.7323L878.1201,1113.4824C880.97614,1120.1205,880.09515,1127.7755,875.8059,1133.5912C871.51666,1139.4069,864.46344,1142.5098,857.278,1141.742L857.278,1141.742L780.38495,1133.5258L799.7268,1124.1852L799.71985,1124.1962L799.6351,1124.329C793.55426,1133.7676,787.2052,1143.6282,779.34375,1154.5958L779.34375,1154.5958C771.53754,1165.4863,762.32263,1177.3518,753.4151,1188.8262C749.08527,1194.4037,742.1723,1197.3362,735.1528,1196.5731C728.13324,1195.81,722.0119,1191.4608,718.98157,1185.0833L718.98157,1185.0833 M755.71936,1167.6272L721.2858,1163.8843C730.3161,1152.2517,739.01996,1141.0354,746.28503,1130.8998L746.28503,1130.8998C753.484,1120.8564,759.3276,1111.7922,765.44244,1102.3007L765.35767,1102.4335L765.3646,1102.4225C769.6124,1095.8278,777.0631,1092.2653,784.7065,1093.0819L784.7065,1093.0819L861.59955,1101.2981L840.75745,1129.5576L778.90894,985.8076L805.7312,996.4065L677.70593,1052.3313L687.9339,1024.9668L755.71936,1167.6272 Z"/>
</g>
</g>
<g id="layer2">
<g style="fill:rgb(0,0,0); fill-opacity:1.0; stroke-linejoin: miter">
<path d="M222.64075,1287.9895L222.64075,1287.9895L222.64073,1287.9897L193.53842,1269.6025L337.63602,1189.7086C337.85257,1189.5885,338.07138,1189.4727,338.29233,1189.3608L338.29233,1189.3608C358.92886,1178.9198,384.4212,1165.6448,413.40576,1165.136L413.75018,1165.1329L413.75348,1165.1329L413.40958,1165.136C417.09656,1165.0714,420.7659,1165.2109,424.39493,1165.515L424.39545,1165.515C448.96017,1167.5736,474.48102,1177.5789,496.48923,1186.0626L495.52493,1185.7195L605.05945,1221.5042C605.3625,1221.6031,605.6631,1221.7095,605.96094,1221.8231L605.96094,1221.8231C622.66833,1228.1978,646.45355,1236.779,659.9811,1251.1147L659.9811,1251.1147C676.0318,1268.1244,676.193,1289.5322,672.5554,1306.1145L672.55536,1306.1145C669.022,1322.2218,659.29443,1345.0868,632.80255,1351.9012L632.80237,1351.9014C623.9661,1354.1742,614.46436,1354.2302,605.6294,1353.49L605.6289,1353.49C590.6211,1352.2322,573.6902,1348.2816,558.20496,1344.4762L558.20514,1344.4763C533.0943,1338.3057,507.63602,1331.4214,482.45932,1324.614C471.99664,1321.785,465.80832,1311.01,468.63727,1300.5474C471.46622,1290.0847,482.2412,1283.8964,492.7039,1286.7253L492.7039,1286.7253C517.9662,1293.5559,542.9705,1300.3157,567.5715,1306.3611L567.57166,1306.3612C583.3655,1310.2426,597.4257,1313.4158,608.90674,1314.3779L608.90625,1314.3779C615.6872,1314.946,620.2386,1314.6061,623.025,1313.8894L623.02484,1313.8895C627.87146,1312.6428,631.8302,1308.5889,634.21783,1297.7046L634.2178,1297.7046C636.5014,1287.2943,634.81885,1281.6381,631.4347,1278.0518L631.4347,1278.0518C625.52814,1271.7922,612.28705,1266.246,591.96936,1258.4938L592.87085,1258.8127L483.33627,1223.0281C483.01166,1222.922,482.69064,1222.8077,482.37198,1222.6849L482.37198,1222.6849C458.91907,1213.6443,438.97354,1206.1235,421.11768,1204.6271L421.1182,1204.6271C418.68317,1204.4231,416.3411,1204.3398,414.09738,1204.3792L413.75348,1204.3822L413.75018,1204.3822L414.0946,1204.3792C395.65375,1204.7029,378.2595,1213.1262,356.01163,1224.3826L356.66794,1224.0348L212.57031,1303.9287C206.30016,1307.4052,198.63322,1307.1857,192.5722,1303.3562C186.51118,1299.5267,183.02078,1292.697,183.468,1285.5415L183.468,1285.5415L183.46802,1285.5413C184.14409,1274.724,193.46129,1266.5029,204.27853,1267.179C215.09578,1267.855,223.31682,1277.1722,222.64075,1287.9895 Z"/>
</g>
<g style="fill:rgb(0,0,0); fill-opacity:1.0; stroke-linejoin: miter">
<path d="M658.87396,1339.2211L658.87396,1339.2211L658.87384,1339.2216L645.6065,1315.7052L645.616,1315.7081L645.616,1315.7081L645.62555,1315.711L645.8526,1315.7823C648.4088,1316.6029,649.64996,1316.9745,650.92413,1317.2013L650.9234,1317.2012C652.7996,1317.5352,657.80273,1318.2482,672.13226,1311.952L672.13226,1311.952C693.5086,1302.5597,729.32086,1280.5801,767.2177,1257.2595L767.2892,1257.2157C784.75464,1246.5706,802.55115,1235.7213,822.712,1224.4838L822.71204,1224.4838C842.8213,1213.275,865.1719,1201.7423,887.1748,1190.3868C888.6002,1189.6512,890.1104,1189.093,891.6717,1188.725L891.6816,1188.7227L891.95404,1188.6586L891.94415,1188.6609C909.63104,1184.4911,933.4883,1178.5248,951.91956,1181.5415L951.9228,1181.5421C952.2225,1181.5912,952.41705,1181.6245,952.6997,1181.6748L952.7048,1181.6757C973.75964,1185.4235,985.8204,1199.9746,993.17236,1208.3157C993.7846,1209.0103,994.3468,1209.7472,994.855,1210.5211L994.855,1210.5211C1000.5227,1219.1534,1011.13806,1234.2333,1011.5773,1251.3921L1011.5773,1251.3926C1012.0295,1269.0752,1002.1394,1284.539,994.26465,1294.2614L994.2645,1294.2615C985.7519,1304.7712,976.1152,1312.7362,968.1358,1319.3909C967.41364,1319.9932,966.6492,1320.5427,965.84814,1321.0354L965.84814,1321.0354L729.66254,1466.3082C729.5483,1466.3785,729.4332,1466.4478,729.31757,1466.5156L729.31757,1466.5156L688.1786,1490.6707L688.3483,1490.5698C667.4014,1503.154,642.01953,1518.769,611.3198,1521.7068L611.31976,1521.7068C597.0922,1523.0682,582.52997,1521.6707,568.50104,1519.1735L568.5008,1519.1733C552.19727,1516.2711,535.4393,1511.6504,519.759,1507.3416L519.68384,1507.3208L519.67596,1507.3186L519.6231,1507.3037L343.61768,1457.6544L357.79968,1456.2806L308.40274,1481.2532C298.96924,1486.0222,287.4533,1482.4626,282.3563,1473.2023L282.3563,1473.2023L184.51614,1295.4425C179.28998,1285.9474,182.75064,1274.0135,192.24576,1268.7874C201.74088,1263.5612,213.67484,1267.0219,218.901,1276.517L218.901,1276.517L316.74112,1454.2767L290.69467,1446.2258L340.0916,1421.2533C344.4799,1419.0348,349.54114,1418.5446,354.27362,1419.8795L354.27362,1419.8795L530.279,1469.5288L530.22614,1469.5139L530.234,1469.5161L530.1589,1469.4954C546.2072,1473.9054,561.17957,1478.0039,575.3796,1480.5317L575.37933,1480.5316C587.51575,1482.6919,598.21875,1483.5319,607.5811,1482.636L607.58105,1482.636C627.9791,1480.6841,645.8394,1470.3203,668.1358,1456.9253C668.19214,1456.8915,668.24884,1456.8578,668.30554,1456.8245L668.30554,1456.8245L709.4445,1432.6694L709.09955,1432.8768L945.28516,1287.604L942.9975,1289.2485C951.33905,1282.2917,958.0311,1276.637,963.765,1269.5579L963.7649,1269.558C970.1385,1261.6888,972.4224,1255.5813,972.34094,1252.396L972.34094,1252.3965C972.246,1248.6866,969.61926,1243.598,962.04565,1232.0629L963.7283,1234.2683C955.29395,1224.6993,951.5677,1221.3395,945.8265,1220.3175L945.83154,1220.3184C945.71466,1220.2976,945.68066,1220.2919,945.5767,1220.2748L945.57996,1220.2754C936.7138,1218.8242,921.9435,1221.9136,900.9506,1226.8628L900.94073,1226.8651L900.6683,1226.9292L905.17505,1225.265C883.0435,1236.6869,861.2745,1247.9238,841.82117,1258.767L841.8212,1258.767C822.4181,1269.5822,805.2423,1280.0483,787.7162,1290.7303L787.78766,1290.6865C751.15533,1313.2289,712.4313,1337.1162,687.9207,1347.8856L687.9207,1347.8856C669.35205,1356.0443,656.17975,1358.0028,644.04535,1355.843L644.0446,1355.8429C639.8029,1355.0878,636.1677,1353.8954,633.8559,1353.1532L634.08295,1353.2245L634.0734,1353.2216L634.0734,1353.2216L634.0639,1353.2186C623.9933,1349.9877,618.28906,1339.7324,620.7966,1329.7023L620.7966,1329.7023L620.7967,1329.7018C623.42535,1319.187,634.0802,1312.7941,644.595,1315.4227C655.10974,1318.0514,661.5026,1328.7063,658.87396,1339.2211 Z"/>
</g>
<g style="fill:rgb(0,0,0); fill-opacity:1.0; stroke-linejoin: miter">
<path d="M312.59525,1525.3225L312.59525,1525.3225L235.08815,1387.5894L235.08815,1387.5894L157.23997,1249.2502L183.55731,1256.9526L92.70509,1305.27L100.579315,1278.2949L258.80914,1558.5461L231.66435,1551.3422L319.642,1498.8458C328.94934,1493.2921,340.99658,1496.335,346.55026,1505.6423C352.10394,1514.9497,349.06104,1526.997,339.7537,1532.5507L339.7537,1532.5507L251.77605,1585.047C247.23637,1587.7559,241.79582,1588.5187,236.68626,1587.1626C231.5767,1585.8065,227.23033,1582.4464,224.63126,1577.843L224.63126,1577.843L66.40141,1297.5918C63.800335,1292.9849,63.16951,1287.523,64.65198,1282.4443C66.134445,1277.3657,69.604614,1273.1008,74.275635,1270.6167L74.275635,1270.6167L165.12784,1222.2993C174.53653,1217.2955,186.21904,1220.7147,191.44518,1230.0017L191.44518,1230.0017L269.29333,1368.3408L269.29333,1368.3408L346.80045,1506.074C352.11575,1515.5195,348.76755,1527.4855,339.32205,1532.8008C329.87656,1538.1161,317.91055,1534.7681,312.59525,1525.3225 Z"/>
</g>
<g style="fill:rgb(0,0,0); fill-opacity:1.0; stroke-linejoin: miter">
<path d="M592.0945,899.2485L592.0945,899.24945L592.0936,899.24896L583.7064,884.57135L583.7073,884.57086L592.0945,899.2485L592.0936,899.24896L583.7064,884.57135L583.7073,884.57086L592.0945,899.2485 Z"/>
</g>
<g style="fill:rgb(0,0,0); fill-opacity:1.0; stroke-linejoin: miter">
<path d="M181.65286,1305.3224L181.65286,1305.3224C185.32101,1321.6254,175.07841,1337.8146,158.77591,1341.4827L158.7759,1341.4827C142.47377,1345.1506,126.28386,1334.909,122.61563,1318.6058L122.615654,1318.606C118.947495,1302.3035,129.18976,1286.1134,145.4926,1282.4453L145.49258,1282.4453C161.79527,1278.7772,177.9849,1289.0199,181.6529,1305.3225L181.65286,1305.3224 M143.361,1313.9381L143.36096,1313.938C144.45114,1318.7833,149.2628,1321.8275,154.10818,1320.7373L154.10817,1320.7373C158.95345,1319.6471,161.9978,1314.8357,160.90749,1309.99L160.9075,1309.9901C159.81723,1305.1444,155.00505,1302.1006,150.16032,1303.1907L150.16031,1303.1907C145.31517,1304.2809,142.27075,1309.0925,143.361,1313.9381 Z"/>
</g>
<g style="fill:rgb(0,0,0); fill-opacity:1.0; stroke-linejoin: miter">
<path d="M-192.12909,726.23126L-192.12909,726.23126L-192.12909,726.23126L-192.12909,726.23126L-192.12909,726.23126L-192.12909,726.23126L-192.12909,726.23126L-192.12909,726.23126L-192.12909,726.23126L-192.12909,726.23126 M-192.12909,765.4804L-192.12909,765.4804L-192.12909,765.4804L-192.12909,765.4804L-192.12909,765.4804L-192.12909,765.4804L-192.12909,765.4804L-192.12909,765.4804L-192.12909,765.4804 Z"/>
</g>
<g style="fill:rgb(0,0,0); fill-opacity:1.0; stroke-linejoin: miter">
<path d="M152.14052,1304.9054C151.62752,1304.9054,151.1063,1304.9618,150.58508,1305.079L150.58507,1305.079C146.78255,1305.9347,144.39351,1309.7107,145.24908,1313.5133C145.9873,1316.7942,148.90009,1319.0228,152.1278,1319.0228C152.63951,1319.0228,153.16342,1318.9662,153.68338,1318.8491L153.68336,1318.8491C157.48595,1317.9935,159.87486,1314.2173,159.01935,1310.4148C158.28107,1307.1337,155.36829,1304.9054,152.14052,1304.9054 Z"/>
</g>
<g style="fill:rgb(0,0,0); fill-opacity:1.0; stroke-linejoin: miter">
<path d="M603.7223,-159.95128L603.7223,-159.95128L603.7223,-159.95128L603.7223,-159.95128L603.7223,-159.95128L603.7223,-159.95128L603.7223,-159.95128L603.7223,-159.95128L603.7223,-159.95128L603.7223,-159.95128 M600.56665,-153.28206L600.56665,-153.28206L600.56665,-153.28206L600.56665,-153.28206L600.56665,-153.28206L600.56665,-153.28206L600.56665,-153.28206L600.56665,-153.28206L600.56665,-153.28206 Z"/>
</g>
<g style="fill:rgb(0,0,0); fill-opacity:1.0; stroke-linejoin: miter">
<path d="M1285.6462,-3.4110718L1285.6462,-3.4110718L1285.6462,-3.4110718L1285.6462,-3.4110718L1285.6462,-3.4110718L1285.6462,-3.4110718L1285.6462,-3.4110718L1285.6462,-3.4110718L1285.6462,-3.4110718L1285.6462,-3.4110718 M1278.2927,-2.8092957L1278.2927,-2.8092957L1278.2927,-2.8092957L1278.2927,-2.8092957L1278.2927,-2.8092957L1278.2927,-2.8092957L1278.2927,-2.8092957L1278.2927,-2.8092957L1278.2927,-2.8092957 Z"/>
</g>
<g style="fill:rgb(0,0,0); fill-opacity:1.0; stroke-linejoin: miter">
<path d="M1491.0403,665.4225L1491.0403,665.4225L1491.0403,665.4225L1491.0403,665.4225L1491.0403,665.4225L1491.0403,665.4225L1491.0403,665.4225L1491.0403,665.4225L1491.0403,665.4225L1491.0403,665.4225 M1486.8424,659.35504L1486.8424,659.35504L1486.8424,659.35504L1486.8424,659.35504L1486.8424,659.35504L1486.8424,659.35504L1486.8424,659.35504L1486.8424,659.35504L1486.8424,659.35504 Z"/>
</g>
<g style="fill:rgb(0,0,0); fill-opacity:1.0; stroke-linejoin: miter">
<path d="M1014.5106,1177.7158L1014.5106,1177.7158L1014.5106,1177.7158L1014.5106,1177.7158L1014.5106,1177.7158L1014.5106,1177.7158L1014.5106,1177.7158L1014.5106,1177.7158L1014.5106,1177.7158L1014.5106,1177.7158 M1017.66626,1171.0466L1017.66626,1171.0466L1017.66626,1171.0466L1017.66626,1171.0466L1017.66626,1171.0466L1017.66626,1171.0466L1017.66626,1171.0466L1017.66626,1171.0466L1017.66626,1171.0466 Z"/>
</g>
<g style="fill:rgb(0,0,0); fill-opacity:1.0; stroke-linejoin: miter">
<path d="M127.192444,352.3421L127.192444,352.3421L127.192444,352.3421L127.192444,352.3421L127.192444,352.3421L127.192444,352.3421L127.192444,352.3421L127.192444,352.3421L127.192444,352.3421L127.192444,352.3421 M131.39034,358.40955L131.39034,358.40955L131.39034,358.40955L131.39034,358.40955L131.39034,358.40955L131.39034,358.40955L131.39034,358.40955L131.39034,358.40955L131.39034,358.40955 Z"/>
</g>
<g style="fill:rgb(0,0,0); fill-opacity:1.0; stroke-linejoin: miter">
<path d="M332.58667,1021.17566L332.58667,1021.17566L332.58667,1021.17566L332.58667,1021.17566L332.58667,1021.17566L332.58667,1021.17566L332.58667,1021.17566L332.58667,1021.17566L332.58667,1021.17566L332.58667,1021.17566 M339.94022,1020.5739L339.94022,1020.5739L339.94022,1020.5739L339.94022,1020.5739L339.94022,1020.5739L339.94022,1020.5739L339.94022,1020.5739L339.94022,1020.5739L339.94022,1020.5739 Z"/>
</g>
<g style="fill:rgb(0,0,0); fill-opacity:1.0; stroke-linejoin: miter">
<path d="M595.7368,153.79851L595.7368,153.79851L595.7368,153.79851L595.7368,153.79851L595.7368,153.79851L595.7368,153.79851L595.7368,153.79851L595.7368,153.79851L595.7368,153.79851L595.7368,153.79851 M592.64417,160.49712L592.64417,160.49712L592.64417,160.49712L592.64417,160.49712L592.64417,160.49712L592.64417,160.49712L592.64417,160.49712L592.64417,160.49712L592.64417,160.49712 Z"/>
</g>
<g style="fill:rgb(0,0,0); fill-opacity:1.0; stroke-linejoin: miter">
<path d="M706.6905,577.34827L706.6905,577.34827C715.2169,583.1018,721.6566,587.5771,737.89594,589.17316L737.8958,589.1731C741.66064,589.5431,745.9692,589.7581,751.1483,590.0111L751.1481,590.0111C756.64154,590.27936,762.9811,590.5852,769.344,591.2106L769.34406,591.2106C783.9476,592.6459,804.64825,596.12964,818.69324,610.7217L818.6932,610.7216C831.33093,623.8515,835.6405,643.7041,838.93317,657.0545L838.93317,657.05444C842.30426,670.72266,845.3183,682.46625,851.0655,692.687L851.0655,692.687C856.29535,701.9878,864.19464,710.77783,873.60364,721.08887L873.60364,721.08887C881.4745,729.7143,891.16095,740.1763,897.4642,751.38586L897.46423,751.386C900.8771,757.45544,903.75806,764.4864,904.7939,772.3862L904.7939,772.38635C907.42523,792.4562,896.76196,812.09015,890.3154,824.9268L890.31537,824.9268C883.6817,838.136,878.54517,848.7508,877.0079,859.4861L877.0079,859.48615C875.5437,869.7108,877.16254,881.2288,879.34955,895.45044L879.3496,895.45044C881.06366,906.5964,883.4911,921.2015,881.62885,934.20624L881.6288,934.2064C880.7154,940.5845,878.707,947.37317,874.6324,953.7301L874.63245,953.73004C863.6221,970.9078,840.44543,978.6672,826.6327,983.8683L826.6326,983.86835C811.61017,989.5249,799.8524,994.17267,791.68036,1001.01263L791.68036,1001.0126C783.523,1007.8403,777.8067,1017.8578,770.773,1030.7682L770.773,1030.7683C765.7344,1040.0168,758.7448,1053.4634,748.40466,1062.1182L748.40485,1062.118C744.92114,1065.0339,740.8365,1067.6407,736.0602,1069.4906L736.0602,1069.4905C730.18146,1071.7673,724.2598,1072.5089,718.8309,1072.5089L718.8309,1072.5089C705.585,1072.5089,690.81854,1067.8442,679.2514,1064.3427L679.25134,1064.3427C664.80725,1059.9701,652.2033,1056.2758,640.3253,1055.8849L640.3257,1055.8849C639.618,1055.8616,638.9174,1055.8503,638.20056,1055.8503L638.20056,1055.8503C626.55145,1055.8503,614.6643,1058.7817,601.09155,1062.2466L601.0916,1062.2466C590.53723,1064.9409,577.40906,1068.4243,565.2556,1068.4243L565.2556,1068.4243C559.6122,1068.4243,553.52765,1067.7075,547.4517,1065.5425L547.4517,1065.5425C528.36646,1058.7418,516.4948,1039.504,508.85205,1028.088L508.85205,1028.088C501.21637,1016.6826,494.97748,1007.6334,487.15063,1001.2963L487.1506,1001.2963C479.39914,995.02026,469.18207,990.6612,456.28693,985.3571L456.28702,985.3572C445.92972,981.09705,432.31268,975.67896,421.97867,967.3119L421.97867,967.3119C417.64383,963.8021,413.4918,959.49786,410.16672,954.1431L410.16672,954.1431C399.09488,936.313,401.33832,912.095,402.27542,896.27454L402.27542,896.2745C403.11206,882.1506,403.74945,869.87335,401.78802,858.61554L401.78802,858.61554C399.749,846.9122,394.73648,835.3838,388.85275,822.1362L388.85275,822.1362C384.10657,811.44995,378.1775,798.3971,375.94638,785.5911L375.94638,785.5912C374.99292,780.1187,374.60562,774.21936,375.36368,768.10065L375.36368,768.10065C378.02487,746.62024,394.51578,729.4221,405.12497,717.63983L405.12494,717.63983C413.5906,708.23804,420.8691,700.0532,426.1358,691.0371L426.13583,691.0371C431.61404,681.65894,435.31488,670.6996,439.48657,658.08466L439.48657,658.0846C442.94138,647.6375,447.01624,635.03986,453.10422,624.61774L453.10425,624.61774C456.4658,618.8631,460.80908,613.0772,466.65567,608.26483L466.6557,608.26483C481.93323,595.68976,503.2876,593.88043,517.15125,592.2805L517.15125,592.2805C530.30255,590.76276,540.9124,589.4119,550.1652,585.5856L550.1653,585.5856C560.112,581.4723,569.58844,574.0548,581.05756,564.8619L581.05756,564.8619C590.23706,557.50415,601.9194,547.9301,614.3872,542.7743L614.38715,542.77435C617.53296,541.47345,620.9026,540.3681,624.4761,539.618L624.4761,539.618C628.05084,538.86755,631.6117,538.5183,635.12915,538.5183L635.12915,538.5183C664.12115,538.5183,690.754,563.2493,708.613,578.8263L706.6905,577.34827 M684.73627,609.88306C684.0656,609.4305,683.4235,608.9368,682.8138,608.405L682.8138,608.405C660.0035,588.50934,645.96655,577.76746,635.12915,577.76746L635.12915,577.76746C634.22235,577.76746,633.3671,577.8562,632.5394,578.02997L632.5394,578.02997C631.6921,578.2078,630.65106,578.5214,629.38617,579.0445L629.3861,579.04456C623.1786,581.6116,616.1585,587.0284,605.60504,595.48737L605.60504,595.48737C595.04297,603.9533,581.20715,615.22156,565.16406,621.85583L565.1641,621.85583C550.0025,628.1257,533.8386,629.8643,521.6509,631.2709L521.6509,631.2709C504.0118,633.3065,496.0853,634.87604,491.59912,638.56866L491.59915,638.56866C490.30777,639.63165,488.75375,641.4037,486.99487,644.41473L486.9949,644.41473C483.4063,650.55804,480.57535,658.8432,476.75098,670.40784L476.75098,670.4078C472.81152,682.32043,467.93683,697.2923,460.02646,710.8341L460.0265,710.8341C452.39233,723.90314,442.30063,735.00934,434.29236,743.90314L434.29233,743.90314C420.81552,758.8701,415.13678,766.29333,414.31503,772.92633L414.31503,772.92633C414.13687,774.36444,414.16364,776.2748,414.61307,778.8544L414.61307,778.85443C415.84283,785.9129,419.39404,794.206,424.72318,806.20483L424.72318,806.20483C430.2656,818.6839,437.44577,834.6086,440.4547,851.8787L440.4547,851.8787C443.33395,868.40454,442.2427,885.3126,441.4559,898.5954L441.4559,898.59534C440.22556,919.3663,440.48932,928.573,443.51028,933.4379L443.51028,933.4379C444.06122,934.32513,445.0,935.4502,446.67667,936.80774L446.67667,936.80774C451.63205,940.8199,459.25507,944.13837,471.2172,949.0586L471.2173,949.05865C483.0329,953.9187,498.85114,960.26855,511.84866,970.7922L511.84863,970.7922C525.0785,981.5039,534.4525,995.77563,541.4669,1006.253L541.4669,1006.25305C551.7765,1021.65247,556.409,1027.0677,560.6259,1028.5703L560.6259,1028.5703C561.45996,1028.8676,562.88226,1029.175,565.2556,1029.175L565.2556,1029.175C571.44403,1029.175,579.32556,1027.2952,591.38336,1024.217L591.3834,1024.217C604.1672,1020.9536,620.81067,1016.60114,638.20056,1016.60114L638.20056,1016.60114C639.33594,1016.60114,640.4675,1016.61914,641.6157,1016.6569L641.6161,1016.6569C659.54376,1017.2468,677.15704,1022.7003,690.6234,1026.777L690.62335,1026.777C704.1885,1030.8834,712.68,1033.2596,718.8309,1033.2596L718.8309,1033.2596C720.754,1033.2596,721.6298,1032.9894,721.8849,1032.8906L721.8849,1032.8905C722.0591,1032.823,722.48846,1032.6268,723.2127,1032.0206L723.2129,1032.0205C726.60516,1029.1812,730.0354,1023.50244,736.30695,1011.9909L736.30695,1011.9909C742.70087,1000.2547,751.6685,983.31934,766.4886,970.9149L766.4886,970.91486C780.7351,958.99054,799.2879,952.2253,812.8018,947.1368L812.80176,947.13684C831.88306,939.95197,839.2398,936.2143,841.5885,932.55L841.58856,932.5499C841.9177,932.03644,842.44745,930.9369,842.776,928.64246L842.77594,928.64264C843.637,922.62946,842.5582,914.43335,840.5564,901.416L840.55646,901.416C838.5545,888.39777,835.7178,870.94257,838.1551,853.9223L838.1551,853.92236C840.7541,835.77277,849.14813,819.4444,855.2408,807.31244L855.2407,807.31244C863.5761,790.71454,866.6101,783.0746,865.87775,777.48865L865.87775,777.4888C865.67334,775.9297,864.99347,773.71893,863.2527,770.62305L863.25275,770.62317C859.5956,764.11926,853.3691,757.1427,844.6111,747.54504L844.6111,747.54504C835.82495,737.91656,824.67236,725.82837,816.85406,711.9243L816.85406,711.9243C808.07074,696.30414,803.9995,679.32086,800.82587,666.4531L800.82587,666.45306C796.63574,649.4639,794.16907,641.8403,790.415,637.94L790.4149,637.93994C787.1012,634.49713,779.6594,631.66266,765.50494,630.2715L765.505,630.2715C760.2637,629.75635,754.8762,629.4891,749.23364,629.2135L749.2334,629.2135C744.2998,628.97253,738.9683,628.7168,734.05695,628.23413L734.0568,628.2341C708.38446,625.7109,695.5175,617.15814,684.73627,609.88306 Z"/>
</g>
<g style="fill:rgb(0,0,0); fill-opacity:1.0; stroke-linejoin: miter">
<path d="M792.30347,868.2785L792.30347,868.2785C757.9368,954.65094,660.073,996.8253,573.712,962.4634L573.712,962.4633C487.35092,928.10126,445.21295,830.2216,479.57953,743.84924L479.57953,743.84924C513.94617,657.47675,611.81,615.3023,698.1711,649.66437L698.1711,649.66437C784.53204,684.0264,826.6701,781.9059,792.30347,868.2785L792.30347,868.2785 M755.8351,853.7681L755.8351,853.7681C782.1916,787.52716,749.87134,712.47723,683.6607,686.13275L683.6607,686.13275C617.44995,659.78827,542.4045,692.1188,516.048,758.3596L516.048,758.3596C489.69156,824.60034,522.0116,899.65045,588.22235,925.99493L588.22235,925.9949C654.4331,952.3393,729.4786,920.0089,755.8351,853.7681 Z"/>
</g>
<g style="fill:rgb(0,0,0); fill-opacity:1.0; stroke-linejoin: miter">
<path d="M492.81152,189.1563L492.81152,189.1563L492.81152,189.1563L492.81152,189.1563L492.81152,189.1563L492.81152,189.1563L492.81152,189.1563L492.81152,189.1563L492.81152,189.1563L492.81152,189.1563 M492.81152,228.40547L492.81152,228.40547L492.81152,228.40547L492.81152,228.40547L492.81152,228.40547L492.81152,228.40547L492.81152,228.40547L492.81152,228.40547L492.81152,228.40547 Z"/>
</g>
<g style="fill:rgb(0,0,0); fill-opacity:1.0; stroke-linejoin: miter">
<path d="M556.3495,244.26732L556.3495,244.26732L556.3495,244.26732L556.3495,244.26732L556.3495,244.26732L556.3495,244.26732L556.3495,244.26732L556.3495,244.26732L556.3495,244.26732L556.3495,244.26732 M556.3495,283.51648L556.3495,283.51648L556.3495,283.51648L556.3495,283.51648L556.3495,283.51648L556.3495,283.51648L556.3495,283.51648L556.3495,283.51648L556.3495,283.51648 Z"/>
</g>
<g style="fill:rgb(0,0,0); fill-opacity:1.0; stroke-linejoin: miter">
<path d="M584.60394,800.1096L584.60394,800.1096L584.6038,800.1101L579.38763,781.41974L628.9123,830.5594L601.8941,829.96436L694.4435,745.8889C702.4658,738.60114,714.8772,739.1966,722.165,747.21893C729.45276,755.2413,728.8573,767.65265,720.83496,774.9404L720.83496,774.9404L628.2856,859.01587C620.5558,866.0379,608.68054,865.77637,601.2674,858.42084L601.2674,858.42084L551.74274,809.2812C546.83,804.4067,544.848,797.3049,546.52655,790.5908L546.52655,790.5908L546.5267,790.59033C549.15533,780.07556,559.8102,773.6827,570.32495,776.31134C580.8397,778.94,587.2326,789.59485,584.60394,800.1096 Z"/>
</g>
</g>
</svg>